<?xml version="1.0" standalone="no"?>
<!DOCTYPE svg PUBLIC "-//W3C//DTD SVG 20010904//EN"
 "http://www.w3.org/TR/2001/REC-SVG-20010904/DTD/svg10.dtd">
<svg version="1.0" xmlns="http://www.w3.org/2000/svg"
 width="500.000000pt" height="500.000000pt" viewBox="0 0 500.000000 500.000000"
 preserveAspectRatio="xMidYMid meet">
<metadata>
Created by potrace 1.11, written by Peter Selinger 2001-2013
</metadata>
<g transform="translate(0.000000,500.000000) scale(0.100000,-0.100000)"
fill="#000000" stroke="none">
<path d="M0 2500 l0 -2500 2500 0 2500 0 0 2500 0 2500 -2500 0 -2500 0 0
-2500z m4100 430 c3 -70 9 -119 13 -112 16 24 86 52 130 52 59 0 106 -32 137
-94 30 -62 33 -187 6 -251 -48 -112 -151 -147 -248 -86 -46 29 -47 30 -50 8
-2 -17 -11 -23 -35 -25 l-33 -3 0 321 0 321 38 -3 37 -3 5 -125z m-3074 64
c32 -20 57 -46 78 -84 30 -53 31 -59 31 -180 0 -116 -2 -129 -28 -182 -46 -93
-125 -138 -246 -138 -81 0 -156 32 -194 81 -99 130 -76 397 40 486 54 42 100
54 190 50 70 -3 89 -8 129 -33z m1572 24 c7 -7 12 -21 12 -33 0 -28 -19 -45
-50 -45 -31 0 -50 17 -50 45 0 28 19 45 50 45 14 0 31 -5 38 -12z m194 -45 c8
-27 38 -139 68 -250 30 -112 57 -197 61 -190 4 6 30 102 58 212 79 310 66 277
113 273 l41 -3 68 -243 c37 -134 69 -246 72 -248 2 -2 32 102 66 232 34 130
65 242 68 250 6 15 68 20 77 6 6 -11 -152 -562 -167 -580 -6 -8 -27 -12 -55
-10 l-46 3 -53 190 c-29 105 -58 208 -64 230 -11 39 -12 36 -69 -181 -31 -122
-60 -227 -64 -233 -4 -6 -27 -11 -52 -11 -37 0 -46 4 -54 23 -15 36 -160 544
-160 561 0 12 10 16 39 16 38 0 40 -1 53 -47z m-1226 -146 l32 -35 22 23 c52
55 138 70 195 35 55 -34 65 -76 65 -266 l0 -165 -37 3 -38 3 -5 160 c-3 100
-10 168 -17 182 -27 46 -98 37 -150 -19 -21 -22 -23 -35 -25 -173 l-3 -150
-35 0 -35 0 -5 160 c-3 88 -9 167 -14 177 -4 9 -21 22 -37 28 -36 15 -74 2
-113 -38 -25 -27 -26 -32 -28 -177 l-3 -150 -37 -3 -38 -3 0 220 0 221 35 0
c33 0 35 -2 35 -32 l0 -31 23 21 c42 39 79 53 131 49 41 -4 55 -10 82 -40z
m760 12 c47 -43 54 -75 54 -254 l0 -166 -37 3 -38 3 -5 163 -5 164 -28 24
c-15 13 -37 24 -48 24 -27 0 -69 -23 -96 -52 -21 -22 -23 -35 -25 -173 l-3
-150 -37 -3 -38 -3 0 220 0 221 35 0 c33 0 35 -2 35 -32 l0 -31 23 21 c42 40
79 53 135 49 38 -3 59 -10 78 -28z m1477 17 c66 -27 112 -112 105 -194 l-3
-37 -147 -3 -148 -3 0 -32 c0 -17 9 -46 20 -64 34 -56 109 -65 238 -27 19 5
22 3 22 -20 0 -38 -37 -57 -124 -63 -92 -7 -150 12 -195 62 -65 74 -66 234 -2
323 44 62 157 91 234 58z m-1208 -216 l0 -215 -37 -3 -38 -3 0 221 0 221 38
-3 37 -3 0 -215z m-995 -440 c0 -13 -7 -20 -20 -20 -13 0 -20 7 -20 20 0 13 7
20 20 20 13 0 20 -7 20 -20z m290 0 c0 -13 -7 -20 -20 -20 -13 0 -20 7 -20 20
0 13 7 20 20 20 13 0 20 -7 20 -20z m440 -120 c0 -133 -1 -140 -20 -140 -19 0
-20 7 -20 140 0 133 1 140 20 140 19 0 20 -7 20 -140z m-879 114 c55 -28 76
-121 43 -190 -23 -47 -62 -66 -132 -62 l-57 3 -3 119 c-1 66 0 126 2 133 8 19
110 17 147 -3z m1191 -119 c26 -71 48 -131 48 -133 0 -2 -10 -2 -22 0 -15 2
-25 13 -32 36 -9 31 -10 32 -67 32 -56 0 -58 -1 -64 -31 -7 -29 -29 -48 -42
-35 -5 4 33 122 78 244 7 17 16 22 31 20 19 -2 30 -24 70 -133z m-644 87 c3
-16 10 -22 28 -22 15 0 24 -6 24 -15 0 -9 -9 -15 -25 -15 -24 0 -25 -2 -25
-71 0 -67 1 -70 23 -67 14 2 22 -2 22 -12 0 -19 -51 -26 -71 -9 -10 8 -14 33
-14 85 0 58 -3 74 -14 74 -24 0 -30 21 -7 27 14 4 21 13 21 30 0 32 34 28 38
-5z m-398 -122 c0 -93 -1 -100 -20 -100 -19 0 -20 7 -20 100 0 93 1 100 20
100 19 0 20 -7 20 -100z m210 85 c0 -8 -7 -15 -15 -15 -11 0 -14 -7 -10 -23 4
-15 -1 -32 -16 -51 -19 -24 -28 -27 -61 -24 -30 3 -38 0 -36 -12 2 -10 19 -17
53 -20 63 -7 75 -14 75 -50 0 -38 -32 -60 -86 -60 -58 0 -90 26 -79 66 4 16 8
60 7 97 -1 92 14 107 103 107 51 0 65 -3 65 -15z m80 -85 c0 -93 -1 -100 -20
-100 -19 0 -20 7 -20 100 0 93 1 100 20 100 19 0 20 -7 20 -100z m322 83 c24
-22 27 -183 3 -183 -8 0 -15 5 -15 12 0 9 -3 9 -12 0 -17 -17 -68 -15 -90 5
-44 40 -8 103 60 103 29 0 33 3 30 23 -2 17 -9 22 -33 21 -16 0 -38 -4 -47 -8
-13 -6 -18 -4 -18 7 0 36 88 51 122 20z m678 2 c0 -8 -7 -15 -15 -15 -11 0
-14 -7 -10 -23 4 -15 -1 -32 -16 -51 -19 -24 -28 -27 -61 -24 -30 3 -38 0 -36
-12 2 -10 19 -17 53 -20 63 -7 75 -14 75 -50 0 -38 -32 -60 -86 -60 -58 0 -90
26 -79 66 4 16 8 60 7 97 -1 92 14 107 103 107 51 0 65 -3 65 -15z m165 -10
c16 -15 25 -36 25 -55 l0 -30 -65 0 c-58 0 -65 -2 -65 -20 0 -28 35 -43 82
-36 34 6 39 4 36 -11 -2 -14 -15 -19 -56 -21 -68 -4 -102 25 -102 88 0 43 21
95 42 103 34 14 80 6 103 -18z m108 13 c4 -10 7 -10 18 0 7 6 28 12 45 12 49
0 64 -28 64 -123 0 -69 -2 -78 -17 -75 -15 3 -18 16 -21 80 -2 67 -5 78 -23
83 -39 13 -59 -20 -59 -97 0 -61 -2 -68 -20 -68 -19 0 -20 7 -20 100 0 80 3
100 14 100 8 0 16 -6 19 -12z m311 6 c9 -3 16 -14 16 -25 0 -16 -4 -17 -29 -8
-49 17 -71 -2 -71 -62 0 -43 3 -51 25 -61 19 -8 31 -8 50 0 13 6 27 7 30 2 10
-17 -27 -40 -65 -40 -53 0 -80 34 -80 102 0 39 5 54 25 73 24 25 65 32 99 19z
m96 -73 l27 -74 25 74 c16 48 31 75 41 77 24 5 22 -9 -26 -143 -36 -101 -47
-121 -66 -123 -21 -3 -21 -2 -8 30 14 32 12 40 -19 124 -38 101 -41 117 -17
112 10 -2 26 -30 43 -77z"/>
<path d="M4180 2789 c-14 -6 -37 -22 -52 -36 -26 -25 -28 -32 -28 -114 l0 -87
35 -31 c42 -36 74 -46 111 -34 46 15 68 55 72 132 8 137 -48 206 -138 170z"/>
<path d="M814 2950 c-84 -26 -133 -137 -120 -273 10 -114 57 -179 136 -192
143 -24 225 66 225 245 -1 102 -29 173 -82 203 -38 21 -116 30 -159 17z"/>
<path d="M3668 2794 c-30 -16 -58 -61 -58 -94 0 -19 6 -20 110 -20 107 0 110
1 110 23 0 12 -9 37 -20 55 -31 51 -89 65 -142 36z"/>
<path d="M1340 2075 l0 -105 30 0 c67 0 100 37 100 111 0 55 -42 99 -94 99
l-36 0 0 -105z"/>
<path d="M2547 2103 c-9 -27 -17 -51 -17 -55 0 -5 18 -8 40 -8 22 0 40 3 40 8
0 14 -34 102 -40 102 -3 0 -14 -21 -23 -47z"/>
<path d="M1693 2103 c-16 -6 -17 -49 -2 -58 5 -4 21 -4 35 -1 17 5 24 13 24
30 0 29 -25 42 -57 29z"/>
<path d="M1673 1934 c-12 -32 48 -46 83 -19 16 13 17 16 4 25 -24 16 -80 12
-87 -6z"/>
<path d="M2132 2021 c-19 -11 -11 -45 11 -49 23 -5 47 15 47 39 0 20 -33 26
-58 10z"/>
<path d="M2773 2103 c-16 -6 -17 -49 -2 -58 5 -4 21 -4 35 -1 17 5 24 13 24
30 0 29 -25 42 -57 29z"/>
<path d="M2753 1934 c-12 -32 48 -46 83 -19 16 13 17 16 4 25 -24 16 -80 12
-87 -6z"/>
<path d="M2968 2099 c-35 -20 -21 -39 27 -39 46 0 58 13 33 38 -15 15 -37 15
-60 1z"/>
</g>
</svg>
